<?xml version="1.0" encoding="UTF-8"?>
<svg width="1393px" height="680px" viewBox="0 0 1393 680" version="1.1" xmlns="http://www.w3.org/2000/svg" xmlns:xlink="http://www.w3.org/1999/xlink">
    <!-- Generator: Sketch 55 (78076) - https://sketchapp.com -->
    <title>Group 10</title>
    <desc>Created with Sketch.</desc>
    <defs>
        <ellipse id="path-1" cx="453.726906" cy="225.19458" rx="36" ry="30.5"></ellipse>
        <polygon id="path-3" points="0 0.000177083333 252.732574 0.000177083333 252.732574 254.522269 0 254.522269"></polygon>
        <path d="M249.911253,120.142635 C159.526253,110.164635 72.9112525,198.142635 142.911253,274.142635 C212.911253,350.142635 356.911253,343.142635 383.911253,296.142635 C410.911253,249.142635 403.911253,137.142635 249.911253,120.142635" id="path-5"></path>
        <path d="M1018.16204,530.157016 C942.27204,570.576016 939.16204,686.157016 1008.16204,731.157016 C1077.16204,776.157016 1176.16204,729.157016 1181.16204,649.157016 C1186.16204,569.157016 1110.16204,481.157016 1018.16204,530.157016" id="path-7"></path>
        <path d="M832.594862,619.501214 C865.749862,592.562214 893.281862,632.659214 891.594862,660.501214 C889.594862,693.501214 856.594862,709.501214 832.594862,700.501214 C808.594862,691.501214 800.594862,645.501214 832.594862,619.501214" id="path-9"></path>
        <path d="M294.863655,380.899177 C442.507756,417.84775 546.883961,502.989727 484.67882,635.72074 C421.591564,770.333 247.271514,778.088439 142.679484,754.822122 C38.0874544,731.555805 -38.2813293,573.677229 20.378751,473.410484 C79.0388312,373.143739 188.611434,354.309101 294.863655,380.899177" id="path-11"></path>
        <path d="M1066.40545,119.076415 C1199.87376,58.662652 1452.75272,79.9624694 1420.96466,290.99585 C1389.17659,502.029231 1148.72839,504.758111 1054.17927,463.824912 C959.630152,422.891713 833.292965,224.593105 1066.40545,119.076415" id="path-13"></path>
    </defs>
    <g id="Page-1" stroke="none" stroke-width="1" fill="none" fill-rule="evenodd">
        <g id="Home-page-Copy-3" transform="translate(-222.000000, -180.000000)">
            <g id="Header" transform="translate(27.000000, 36.000000)">
                <g id="Group-10" transform="translate(168.000000, 59.000000)">
                    <mask id="mask-2" fill="white">
                        <use xlink:href="#path-1"></use>
                    </mask>
                    <g id="Oval-Copy-2" transform="translate(453.726906, 225.194580) rotate(-26.000000) translate(-453.726906, -225.194580) "></g>
                    <g id="Group-42" mask="url(#mask-2)">
                        <g transform="translate(-53.000000, -32.000000)">
                            <path d="M515.324031,17.8410619 L515.324031,17.8410619 C536.830099,28.3434705 550.948753,49.6277767 552.221975,73.4670742 L554.526577,116.608846 C556.346313,150.674608 552.913119,184.816004 544.346731,217.84358 L522.214129,303.17757 C518.798717,316.343692 511.377518,328.13246 500.970056,336.924844 L500.421171,337.38869 C488.521171,347.442025 473.436338,352.971537 457.838186,352.999899 C444.289161,353.023535 431.060814,348.893832 419.946204,341.168588 L417.249203,339.294888 C403.233093,329.55295 393.549376,314.775481 390.231768,298.066996 C386.539543,279.468267 379.78637,261.606373 370.245505,245.205149 L368.132953,241.573563 C337.353349,188.66149 328.248154,125.948391 342.714751,66.5076184 C346.875839,49.4097398 357.729047,34.682496 372.853002,25.6129861 L375.828595,23.8291011 C418.294217,-1.63808743 470.819357,-3.89231769 515.324031,17.8410619" id="Fill-7" fill="#6651FF"></path>
                            <path d="M685,460.851899 C673.818641,495.832909 639.646796,518.342875 603.063379,514.593284 C559.098961,510.087979 509.106796,496.443747 509.106796,456.712625 C509.106796,409.768521 502,304.878121 502,274.584544 C502,270.860971 503.319495,266.356849 505.422515,261.542281 C516.769107,235.568333 542.716612,219 571.098194,219 L615.116505,219 C658.349515,219 685,272.219244 685,347.317511 L685,460.851899 Z" id="Fill-13" fill="#FAE667"></path>
                            <g id="Group-29" stroke-width="1" fill="none">
                                <mask id="mask-4" fill="white">
                                    <use xlink:href="#path-3"></use>
                                </mask>
                                <g id="Clip-28"></g>
                                <path d="M126.482699,90.6981285 L142.149739,38.8103507 C142.149739,38.8103507 172.648385,44.7450035 211.59498,68.3401771 C274.264324,106.306253 264.525305,205.020177 187.881711,242.564795 C111.238708,280.110003 8.76482061,227.378128 0.296134426,110.525559 C-1.82088899,72.9803507 7.07143888,36.2792396 37.9824693,0.000177083333 L77.3509283,22.4307326 C53.2519377,57.4076424 44.6102398,76.1607674 50.2627457,114.321635 C58.5447925,170.23983 113.355732,216.832226 160.358036,195.317191 C204.76872,174.989205 203.972985,110.10351 126.482699,90.6981285" id="Fill-27" fill="#2C8CFF" mask="url(#mask-4)"></path>
                            </g>
                        </g>
                    </g>
                    <mask id="mask-6" fill="white">
                        <use xlink:href="#path-5"></use>
                    </mask>
                    <g id="Fill-1-Copy" transform="translate(256.750834, 225.402767) rotate(26.000000) translate(-256.750834, -225.402767) "></g>
                    <g id="Group-42" mask="url(#mask-6)">
                        <g transform="translate(10.000000, -67.000000)">
                            <path d="M318.194159,10.7703707 L318.194159,10.7703707 C333.808154,18.3921186 344.058684,33.8384437 344.983078,51.1389624 L346.656282,82.4475626 C347.97746,107.169573 345.484867,131.946472 339.265435,155.915055 L323.196559,217.84315 C320.716877,227.397994 315.328883,235.953271 307.77278,242.33403 L307.374275,242.670649 C298.734549,249.966498 287.782547,253.979344 276.457861,253.999927 C266.620898,254.017079 257.016755,251.020095 248.947244,245.413775 L246.989147,244.054005 C236.813068,236.984141 229.782424,226.25992 227.373749,214.134334 C224.693093,200.636971 219.790104,187.674339 212.863175,175.771737 L211.329404,173.136243 C188.982569,134.737196 182.371947,89.2254037 192.875093,46.0883859 C195.896157,33.6802112 203.775884,22.9924399 214.756289,16.410567 L216.916651,15.1159762 C247.747856,-3.36592631 285.882547,-5.00185341 318.194159,10.7703707" id="Fill-7" fill="#6651FF"></path>
                            <path d="M115.494289,241.132441 C130.219176,200.58885 176.405466,209.602506 182.858651,241.132441 C187.832065,265.433426 194.086044,327.712466 186.38726,341.874254 C178.688476,356.036042 168.705077,375.487581 148.534904,387.900066 C124.476204,402.705572 50.6961881,385.003337 66.0937565,338.333807 C81.491325,291.664277 102.428489,277.106924 115.494289,241.132441" id="Fill-21" fill="#FF6699"></path>
                            <path d="M348.679369,483.932757 C326.36925,482.219763 303,418.217703 303,387.403946 C303,356.590188 330.722651,325.776431 361.595604,318.859057 C392.468556,311.941683 427.751931,347.786258 417.040906,390.862633 C406.329882,433.939008 388.373165,437.712121 384.592803,448.402608 C380.812442,459.093095 369.156327,485.504887 348.679369,483.932757" id="Fill-23" fill="#FF6E28"></path>
                            <path d="M170.022821,309.700061 L191.083041,240.076154 C191.083041,240.076154 232.08046,248.039373 284.433926,279.69978 C368.676398,330.64331 355.584846,463.099339 252.557665,513.477349 C149.53128,563.856151 11.7820554,493.09962 0.398131354,336.304846 C-2.44765055,285.926044 9.50574849,236.679866 51.0575094,188 L103.978061,218.097703 C71.5832988,265.030318 59.9668059,290.193581 67.5651152,341.398486 C78.6981517,416.430475 152.377062,478.948948 215.559314,450.079707 C275.257813,422.803267 274.188156,335.738534 170.022821,309.700061" id="Fill-27" fill="#2C8CFF"></path>
                        </g>
                    </g>
                    <mask id="mask-8" fill="white">
                        <use xlink:href="#path-7"></use>
                    </mask>
                    <g id="Fill-4-Copy" transform="translate(1070.056271, 632.343172) rotate(26.000000) translate(-1070.056271, -632.343172) "></g>
                    <g id="Group-42" mask="url(#mask-8)">
                        <g transform="translate(41.000000, 223.000000)">
                            <path d="M1003.40408,111.408104 C1003.40408,111.408104 966.000002,244.705302 966.000002,266.922389 C966.000002,289.138292 965.870312,353.217006 1036.47213,361.747378 C1085.80298,367.707569 1117.24427,266.922389 1175.24897,194.854924 C1224.18541,134.053161 1210.48562,76.1873942 1163.86465,50.7199931 C1117.24427,25.2519999 1027.25643,21.4594739 1003.40408,111.408104" id="Fill-17" fill="#6651FF"></path>
                            <path d="M156.911142,233.610761 L149.513483,242.903724 C144.713991,248.9329 141.033253,255.766951 138.644482,263.082863 L134.292847,276.413189 C129.688515,290.515911 117.76779,301.0277 103.148648,303.874581 C70.8803556,310.160042 39.5202355,289.493136 32.7288152,257.466458 L2.06450576,112.870158 C-10.517625,53.5391656 36.058978,-1.84658396 96.9427053,0.0472033427 L96.9427053,0.0472033427 C154.064428,1.82406833 196.379562,53.5255838 186.587199,109.575665 L170.000449,204.522495 C168.143175,215.153569 163.643243,225.15338 156.911142,233.610761" id="Fill-19" fill="#6651FF"></path>
                            <path d="M899,524.784447 L961.726202,560.334872 C961.726202,560.334872 1038.06281,455.461117 1186.59372,454.276102 C1335.12463,453.091088 1434.53974,571 1434.53974,571 L1502,527.154475 C1502,527.154475 1377.13935,376.657673 1186.59372,379.027701 C996.048086,381.39773 899,524.784447 899,524.784447" id="Fill-38" fill="#FF6699"></path>
                            <path d="M1003.08844,288.940941 C1007.89407,321.108516 993.663747,338.707145 999.274854,363.620373 C1005.8786,392.94138 1018.31851,403.031662 1020.57859,421.350942 C1022.83926,439.671402 1016.31725,466.464818 993.397228,470.017859 C970.476616,473.570309 939.29807,469.610869 901.07573,421.812866 C859.283815,369.55274 859.351925,320.390228 864.107212,279.403551 C868.86309,238.417464 914.209181,226.97862 947.262834,233.877959 C980.31708,240.777297 997.88718,254.125272 1003.08844,288.940941" id="Fill-40" fill="#F5A623"></path>
                        </g>
                    </g>
                    <mask id="mask-10" fill="white">
                        <use xlink:href="#path-9"></use>
                    </mask>
                    <g id="Fill-7-Copy-2" transform="translate(851.578639, 656.782918) rotate(-57.000000) translate(-851.578639, -656.782918) "></g>
                    <g id="Group-42" mask="url(#mask-10)">
                        <g transform="translate(717.000000, 531.000000)">
                            <path d="M166.088441,56.940941 C170.89407,89.1085158 156.663747,106.707145 162.274854,131.620373 C168.878596,160.94138 181.318507,171.031662 183.578585,189.350942 C185.839257,207.671402 179.317247,234.464818 156.397228,238.017859 C133.476616,241.570309 102.29807,237.610869 64.0757295,189.812866 C22.2838147,137.55274 22.3519251,88.3902285 27.1072116,47.4035507 C31.8630904,6.41746355 77.2091806,-5.02137969 110.262834,1.87795876 C143.31708,8.77729721 160.88718,22.1252725 166.088441,56.940941" id="Fill-40" fill="#2A66EE"></path>
                            <path d="M141.088441,160.940941 C145.89407,193.108516 131.663747,210.707145 137.274854,235.620373 C143.878596,264.94138 156.318507,275.031662 158.578585,293.350942 C160.839257,311.671402 154.317247,338.464818 131.397228,342.017859 C108.476616,345.570309 77.29807,341.610869 39.0757295,293.812866 C-2.71618527,241.55274 -2.64807492,192.390228 2.10721161,151.403551 C6.86309041,110.417464 52.2091806,98.9786203 85.2628344,105.877959 C118.31708,112.777297 135.88718,126.125272 141.088441,160.940941" id="Fill-40-Copy" fill="#FF6E28"></path>
                        </g>
                    </g>
                    <mask id="mask-12" fill="white">
                        <use xlink:href="#path-11"></use>
                    </mask>
                    <g id="Fill-1-Copy-2"></g>
                    <g id="Group-2" mask="url(#mask-12)">
                        <g transform="translate(-7.000000, 341.000000)">
                            <path d="M111.890517,289.423159 C190.824057,256.178594 247.787338,315.646949 228.073681,393.485391 C208.360547,471.323832 139.153707,602.442784 74.560935,537.508005 C9.96816308,472.573226 25.9065307,325.636397 111.890517,289.423159" id="Fill-9" fill="#FF6699"></path>
                            <path d="M463.433331,15.2562294 C542.366871,-17.988336 599.330152,41.4800196 579.616495,119.318461 C559.903361,197.156903 490.696521,328.275854 426.103749,263.341075 C361.510977,198.406297 377.449345,51.4694669 463.433331,15.2562294" id="Fill-9-Copy" fill="#FF6E28" transform="translate(485.042814, 143.333070) rotate(96.000000) translate(-485.042814, -143.333070) "></path>
                            <path d="M164.040948,182.413645 C156.403408,206.28582 133.061984,221.647351 108.073311,219.088509 C78.0429709,216.013943 43.8953172,206.702676 43.8953172,179.58887 C43.8953172,147.552691 39.0409482,75.9720799 39.0409482,55.2987608 C39.0409482,52.7576737 39.9422427,49.6839148 41.3787314,46.3982977 C49.1291359,28.6728333 66.8528414,17.3660652 86.2391683,17.3660652 L116.30632,17.3660652 C145.837065,17.3660652 164.040948,53.6846035 164.040948,104.934097 L164.040948,182.413645 Z" id="Fill-13" fill="#FAE667" transform="translate(101.540948, 118.366065) rotate(-27.000000) translate(-101.540948, -118.366065) "></path>
                            <path d="M197.127219,237.749615 L199.497304,256.851529 C201.02932,269.197273 206.99741,280.547538 216.271656,288.753692 L220.260951,292.283279 C234.957424,305.286982 255.874561,308.753716 273.701723,300.656193 C279.266271,298.12935 284.491411,294.527464 288.738684,289.554071 C305.727417,269.660134 333.438101,165.97856 293.396705,140.349726 C256.409253,116.675152 216.964882,120.321726 202.171487,166.176929 C192.443256,196.331919 197.127219,237.749615 197.127219,237.749615" id="Fill-15" fill="#6651FF"></path>
                            <path d="M286.214886,250.546996 C286.214886,250.546996 272.359572,350.261998 271.180464,365.48796 C270.001357,380.713922 274.128233,398.925207 297.711665,396.835318 C321.295097,394.745755 353.700284,375.0993 369.936006,355.934601 C400.829839,319.466754 361.957895,217.161866 315.693855,218.005183 C290.18191,218.470001 286.214886,250.546996 286.214886,250.546996" id="Fill-36" fill="#2C8CFF"></path>
                        </g>
                    </g>
                    <mask id="mask-14" fill="white">
                        <use xlink:href="#path-13"></use>
                    </mask>
                    <g id="Mask-Copy-2" transform="translate(1178.810066, 287.047910) rotate(27.000000) translate(-1178.810066, -287.047910) "></g>
                    <g id="Group-42" mask="url(#mask-14)">
                        <g transform="translate(894.000000, -93.000000)">
                            <path d="M264,449.697539 L312.49825,381.705445 C332.376026,393.494092 417.996729,448.250195 506.491248,488.127854 C642.034393,549.20663 718.852663,358.053065 642.522924,271.735623 C571.053656,190.913716 541.38633,177.729162 482.242124,154.079738 L530.148931,92 C530.148931,92 632.910808,145.291021 696.935595,218.524419 C758.44557,288.881456 768.500085,375.201854 731.239235,457.974838 C693.978384,540.747822 588.701696,610.513623 482.242124,562.032304 C375.782551,513.550984 264,449.697539 264,449.697539" id="Fill-5" fill="#FAE667"></path>
                            <path d="M177.426216,351.80637 C250.750266,320.737813 303.665395,376.313694 285.352709,449.057256 C267.040508,521.800818 202.751921,644.337438 142.749498,583.652935 C82.7470753,522.968433 97.5527671,385.649287 177.426216,351.80637" id="Fill-9" fill="#2C8CFF"></path>
                            <path d="M266.239902,251.515948 C242.760063,289.321308 199.751094,311.211203 166.219708,311.135063 C121.219824,311.032881 83.6938543,295.053854 68.0558028,263.416734 C44.8010824,216.370439 61.5703659,124.919045 61.5703659,97.2863906 C61.5703659,93.8898881 62.7744954,89.7813984 64.6936443,85.3897319 C75.0481847,61.6972795 98.7270553,46.5842727 124.627188,46.5842727 L164.796903,46.5842727 C204.249978,46.5842727 298.32001,110.532887 298.32001,179.034684 L266.239902,251.515948 Z" id="Fill-13" fill="#F5A623" transform="translate(177.021174, 178.859767) rotate(-37.000000) translate(-177.021174, -178.859767) "></path>
                            <path d="M412.087766,219.547375 C412.087766,219.547375 394.705644,343.773327 393.226401,362.741984 C391.747157,381.710641 396.92451,404.398443 426.510997,401.794838 C456.097485,399.191639 496.751265,374.715888 517.119716,350.840313 C555.877434,305.408302 507.110813,177.955844 449.070472,179.006457 C417.064578,179.585531 412.087766,219.547375 412.087766,219.547375" id="Fill-36" fill="#FF6699"></path>
                        </g>
                    </g>
                </g>
            </g>
        </g>
    </g>
</svg>