<?xml version="1.0" encoding="UTF-8"?>
<svg width="316px" height="399px" viewBox="0 0 316 399" version="1.1" xmlns="http://www.w3.org/2000/svg" xmlns:xlink="http://www.w3.org/1999/xlink">
    <!-- Generator: Sketch 55 (78076) - https://sketchapp.com -->
    <title>Illustration</title>
    <desc>Created with Sketch.</desc>
    <g id="Page-1" stroke="none" stroke-width="1" fill="none" fill-rule="evenodd">
        <g id="Home-page-Copy-3" transform="translate(-379.000000, -1463.000000)">
            <g id="Histoire" transform="translate(0.000000, 974.000000)">
                <g id="Illustration" transform="translate(370.000000, 461.000000)">
                    <g id="Fill-1">
                        <g id="Group-8">
                            <path d="M97.9568203,116.993067 C189.277272,78.2099219 255.179707,147.585769 232.372418,238.392178 C209.565734,329.198587 129.498378,482.162095 54.7691678,406.409113 C-19.9600422,330.656131 -1.5204926,159.239469 97.9568203,116.993067" id="Fill-4" fill="#F5A623"></path>
                            <path d="M186.57636,174.495159 C175.860716,98.5581259 151.994209,66.1838803 119.292881,77.9094707 C55.911057,100.635856 89.8477968,215.380712 116.356213,216.838776 C130.78921,217.632884 124.271807,179.404455 111.354957,124.123934 L155.455163,114.972184 C177.570653,201.598347 176.57302,246.531465 129.466212,264.02843 C87.6688956,279.553157 49.5456295,216.65291 42.0337479,150.888615 C33.5480231,76.5900181 78.7046753,34.3512329 112.395012,29.663245 C172.974715,21.2341062 217.034298,58.3275203 227.153228,165.855086 L186.57636,174.495159 Z" id="Fill-1" fill="#2A66EE" transform="translate(134.072708, 147.462068) rotate(24.000000) translate(-134.072708, -147.462068) "></path>
                            <path d="M322.65028,117 C322.65028,117 340.789949,211.872031 266.291674,288.154506 C191.793398,364.436981 83,354.514283 83,354.514283 L92.411231,310.562506 C92.411231,310.562506 178.276935,317.707362 236.609868,258.50594 C294.942802,199.304517 283.795354,127.797021 283.795354,127.797021 L322.65028,117 Z" id="Fill-6" fill="#2A66EE"></path>
                        </g>
                    </g>
                </g>
            </g>
        </g>
    </g>
</svg>